<?xml version="1.0"?>
<svg width="958.02" height="393.9" xmlns="http://www.w3.org/2000/svg" xmlns:svg="http://www.w3.org/2000/svg" data-name="Layer 1">
 <g class="layer">
  <title>Layer 1</title>
  <path class="cls-1" d="m290.73,0l0,386.73l-66.2,0l0,-137.92q0,-33.64 -23.17,-56.27q-23.16,-23.18 -55.72,-23.17q-33.09,0 -56.27,23.17t-23.17,56.27q0,32.55 23.17,55.72a71.4,71.4 0 0 0 25.64,17.42a82.13,82.13 0 0 0 30.61,5.8a75.23,75.23 0 0 0 29.24,-5.52l23.73,59q-25.37,12.72 -58.46,12.72q-30.35,0 -56,-11.31a135.63,135.63 0 0 1 -44.41,-31.17a144,144 0 0 1 -29.24,-46.34a151.46,151.46 0 0 1 -10.47,-56.32a153,153 0 0 1 10.47,-56.86a144,144 0 0 1 29.24,-46.34a135.78,135.78 0 0 1 44.41,-31.17q25.65,-11.29 56,-11.3q26.48,0 47.44,8.27a144.61,144.61 0 0 1 37,21l0,-132.41l66.16,0z" fill="#000000" id="svg_1"/>
  <polygon class="cls-2" fill="#a30b37" id="svg_2" points="579.14 110.89 643.51 287.94 703.35 110.89 579.14 110.89"/>
  <path class="cls-1" d="m958.01,350.42a145.92,145.92 0 0 1 -46.34,31.17a148.41,148.41 0 0 1 -113.65,0a145.38,145.38 0 0 1 -77.51,-77.51a141.77,141.77 0 0 1 -11.31,-56.27a143.22,143.22 0 0 1 11.32,-56.86a145.38,145.38 0 0 1 77.49,-77.48a148.53,148.53 0 0 1 113.65,0a146.09,146.09 0 0 1 46.35,31.17l-46.89,46.9q-23.17,-23.18 -56.28,-23.17q-32,0 -56.27,23.17q-23.16,23.16 -23.17,56.27q0,32.55 23.17,55.72a77.52,77.52 0 0 0 25.94,17.42a80.07,80.07 0 0 0 30.34,5.8q33.65,0 56.28,-23.17l46.88,46.84z" fill="#000000" id="svg_3"/>
  <path class="cls-1" d="m490.01,158.95l-39.69,120.94l-61.49,-169l-69.54,0l93.23,275.84l69.49,0l46.44,-141.08c-14.87,-27.98 -28.44,-56.7 -38.44,-86.7z" fill="#000000" id="svg_4"/>
  <polygon class="cls-1" fill="#000000" id="svg_5" points="610.1199951171875,386.7200012207031 516.8900146484375,110.88999938964844 446.82000732421875,110.88999938964844 481.5799865722656,209.0800018310547 540.0499877929688,386.7200012207031 610.1199951171875,386.7200012207031 "/>
 </g>
</svg>